<?xml version="1.0" encoding="utf-8"?>
<!-- Generator: Adobe Illustrator 27.0.0, SVG Export Plug-In . SVG Version: 6.00 Build 0)  -->
<svg version="1.1" id="Layer_1" xmlns="http://www.w3.org/2000/svg" xmlns:xlink="http://www.w3.org/1999/xlink" x="0px" y="0px"
	 viewBox="0 0 158.7 42.8" style="enable-background:new 0 0 158.7 42.8;" xml:space="preserve">
<style type="text/css">
	.st0{fill:#9F2241;}
	.st1{fill:#BC955C;}
</style>
<path class="st0" d="M53.6,24.8c0.2,0.3,0.5,0.4,0.9,0.4c0.5,0,0.9-0.5,0.9-0.5L64,13.8c0.7-0.7,1.4-0.1,1.4-0.1
	c0.7,0.7,0.2,1.3,0.2,1.3l-1.9,2.4v0c-0.2,0.2-0.3,0.4-0.3,0.6c0,0.2,0.1,0.4,0.2,0.6l1.9,2.4l6.1-7.7l-2.4-3.1l-0.4-0.6
	c-0.4-0.6-1.3-0.7-1.3-0.7h-3.7c-1,0-1.5,0.7-1.5,0.7L52,22.8C52,22.8,53.6,24.8,53.6,24.8z M53.1,18.1L50.7,15
	c-0.5-0.8,0.2-1.4,0.2-1.4c0.9-0.5,1.5,0.3,1.5,0.3l2,2.6l2.4-3.1l-2.8-3.5c-0.7-0.9-1.7-0.8-1.7-0.8h-3.3c-1.1,0-1.5,0.6-1.5,0.6
	l-3,3.7l6.1,7.7L53.1,18.1L53.1,18.1z"/>
<path class="st0" d="M62.7,20.7c0,0-0.3-0.4-0.8-0.4c-0.6,0-0.8,0.4-0.8,0.4l-8.7,11.1c-0.7,0.8-1.5,0.1-1.5,0.1
	c-0.7-0.7-0.1-1.4-0.1-1.4l2-2.5v0c0.2-0.2,0.3-0.4,0.3-0.6c0-0.2-0.1-0.4-0.2-0.6l-1.9-2.4l-6.2,7.8l3.4,4.3l5.4,0l10.9-13.6
	C64.3,22.8,62.7,20.7,62.7,20.7z M63.1,27.4l2.5,3.1c0.6,0.8-0.1,1.4-0.1,1.4c-0.9,0.6-1.5-0.3-1.5-0.3l-2.1-2.6L59.4,32l3.5,4.4
	l5.4,0l3.4-4.3l-6.2-7.7L63.1,27.4L63.1,27.4z M71.6,24.1c-0.7,0-1.3-0.6-1.3-1.3c0,0,0,0,0,0c0-0.7,0.6-1.3,1.3-1.3
	c0.7,0,1.3,0.6,1.3,1.3S72.3,24.1,71.6,24.1z M71.6,20.4c-1.4,0-2.5,1.1-2.5,2.4s1.1,2.4,2.5,2.4c1.4,0,2.5-1.1,2.5-2.4
	S73,20.4,71.6,20.4z M58.1,5.4c0.7,0,1.3,0.6,1.3,1.3c0,0.7-0.6,1.3-1.3,1.3c-0.7,0-1.3-0.6-1.3-1.3c0,0,0,0,0,0
	C56.8,6,57.4,5.4,58.1,5.4L58.1,5.4z M58.1,9.1c1.4,0,2.5-1.1,2.5-2.4s-1.1-2.4-2.5-2.4c-1.4,0-2.5,1.1-2.5,2.4
	C55.6,8,56.7,9.1,58.1,9.1L58.1,9.1z M43.2,22.8c0-0.7,0.6-1.3,1.3-1.3c0.7,0,1.3,0.6,1.3,1.3S45.3,24,44.5,24
	C43.8,24.1,43.2,23.5,43.2,22.8C43.2,22.8,43.2,22.8,43.2,22.8z M47.1,22.8c0-1.3-1.1-2.4-2.5-2.4c-1.4,0-2.5,1.1-2.5,2.4
	s1.1,2.4,2.5,2.4C45.9,25.2,47.1,24.1,47.1,22.8z M58.1,40.1c-0.7,0-1.3-0.6-1.3-1.3c0,0,0,0,0,0c0-0.7,0.6-1.3,1.3-1.3
	c0.7,0,1.3,0.6,1.3,1.3C59.4,39.5,58.8,40.1,58.1,40.1z M58.1,36.4c-1.4,0-2.5,1.1-2.5,2.4c0,1.3,1.1,2.4,2.5,2.4
	c1.4,0,2.5-1.1,2.5-2.4C60.6,37.5,59.5,36.4,58.1,36.4z"/>
<path class="st1" d="M32.1,6.7H3.5v18.8c0,10.3,14.3,13.4,14.3,13.4h0c0,0,14.3-3.1,14.3-13.4L32.1,6.7L32.1,6.7z M31.4,7.4v18.1
	c0,2.2-0.7,4.2-2.1,6c-1.1,1.5-2.7,2.8-4.7,3.9c-3,1.8-6.1,2.6-6.9,2.7c-0.7-0.2-3.8-1-6.8-2.7c-2-1.1-3.6-2.5-4.7-3.9
	c-1.4-1.8-2.1-3.8-2.1-6V7.4L31.4,7.4L31.4,7.4z"/>
<path class="st1" d="M21.3,12.7V11h-1.8v1.6h-0.7V11h-1.9v1.6h-0.7V11h-1.8v1.7l0.9,1.5c0,0.1,0,0.1,0,0.2v7.9h0.9v-2.8
	c0-0.7,0.8-1.3,1.6-1.3c0.9,0,1.6,0.6,1.6,1.3v2.8h0.9v-7.8c0-0.1,0-0.1,0.1-0.2C20.4,14.2,21.3,12.7,21.3,12.7z M14.6,22.4v-2.6
	L14.3,20c-0.1,0.1-0.3,0.1-0.4,0l-0.4-0.2v0l0,1c0,0.1-0.1,0.2-0.1,0.2c0,0,0.1,0,0.1,0.1c0.5,0.4,0.5,0.9,0.4,1.3
	C13.9,22.4,14.6,22.4,14.6,22.4z"/>
<path class="st1" d="M17.8,18.9c-0.5,0-0.9,0.4-0.9,0.6v2.8h1.8v-2.8C18.7,19.2,18.3,18.9,17.8,18.9z"/>
<path class="st1" d="M7.1,22.4c-0.1-0.2-0.2-0.5-0.2-0.8c-0.1-0.6-0.1-1-0.1-1.1c0-0.1,0.1-0.3,0.3-0.3L7.8,20l-0.9-0.6
	c-0.1-0.1-0.2-0.2-0.1-0.3v-1c0-0.1,0.1-0.2,0.2-0.3l0.3-0.2v-0.3L7,17.2c-0.2,0-0.3-0.2-0.3-0.3v-1.1c0-0.2,0.1-0.4,0.4-0.4l1.1,0
	c0-0.3,0-0.7,0-1c0.1-0.4,0.4-0.9,0.5-1.1l-0.1-0.4c0-0.1,0-0.2,0.1-0.2c0.1-0.1,0.2-0.1,0.3-0.1h0.6c0.1,0,0.1,0,0.2,0.1l1.4,0.9
	h0.7c0.1,0,0.2,0,0.3,0.1c0.1,0.1,0.1,0.1,0.1,0.2l-0.1,1.1c0,0.1,0,0.2-0.1,0.2h0.4c0.1,0,0.2,0,0.3,0.1l0.2,0.2l0.1-0.1l0.3-0.5
	c0.1-0.1,0.2-0.2,0.3-0.2h0.9v-0.2L13.7,13c0-0.1,0-0.1,0-0.2v-2.2c0-0.2,0.1-0.4,0.4-0.4h7.6c0.2,0,0.4,0.1,0.4,0.4v2.1
	c0,0.1,0,0.1-0.1,0.2L21,14.4v0.2H22c0.1,0,0.3,0.1,0.3,0.2l0.3,0.5l0.1,0.1l0.2-0.2c0.1-0.1,0.2-0.1,0.3-0.1h0.4
	c-0.1-0.1-0.1-0.2-0.1-0.2l-0.1-1.1c0-0.1,0-0.2,0.1-0.2c0.1-0.1,0.2-0.1,0.3-0.1h0.7l1.4-0.9c0.1,0,0.1-0.1,0.2-0.1h0.6
	c0.1,0,0.2,0,0.3,0.1c0.1,0.1,0.1,0.2,0.1,0.2l-0.1,0.4c0.1,0.2,0.4,0.7,0.5,1.1c0.1,0.3,0.1,0.7,0,1l1.1,0c0.2,0,0.4,0.1,0.4,0.4
	v1.1c0,0.1-0.1,0.2-0.2,0.3l-0.3,0.1v0.3l0.3,0.2c0.1,0.1,0.2,0.2,0.2,0.3v1c0,0.1-0.1,0.2-0.1,0.3L27.7,20l0.8,0.2
	c0.1,0,0.2,0.2,0.3,0.3c0,0,0,0.5-0.1,1.1c-0.1,0.3-0.1,0.6-0.2,0.8h1.3V9.1h-24v13.4H7.1z"/>
<path class="st1" d="M22.1,21.1c0,0,0.1,0,0.1-0.1c-0.1-0.1-0.1-0.1-0.1-0.2v-1L21.7,20c-0.1,0.1-0.3,0.1-0.4,0L21,19.9v2.6h0.7
	C21.6,22,21.6,21.5,22.1,21.1z M26.8,29.6c-0.2,0-0.4-0.2-0.4-0.4V27c0-0.2-0.1-0.4-0.3-0.5c-0.2-0.2-0.5-0.3-0.7-0.2
	c-0.5,0-0.9,0.4-0.9,0.8v2.3c0,0.1,0,0.2-0.1,0.2c-0.1,0.1-0.2,0.1-0.3,0.1h-2.1c-0.2,0-0.4-0.2-0.4-0.4V27c0-0.2-0.1-0.4-0.3-0.5
	c-0.2-0.2-0.5-0.3-0.7-0.2c-0.2,0-0.4,0.1-0.6,0.2l1.7,8.6c2.4-1,5.3-2.8,6.9-5.4C28.7,29.6,26.8,29.6,26.8,29.6z M21.2,35.2
	l-2.4-12.1h-1.9l-2.4,12.1c0,0,0,0,0,0.1c1.7,0.7,3,1,3.4,1.1C18.2,36.4,19.5,36,21.2,35.2C21.2,35.3,21.2,35.3,21.2,35.2L21.2,35.2
	z M15.4,26.4c-0.1-0.1-0.4-0.2-0.6-0.2h0c-0.4,0-0.6,0.1-0.7,0.3c-0.1,0.1-0.3,0.4-0.3,0.5v2.3c0,0.2-0.2,0.4-0.4,0.4h-2.1
	c-0.1,0-0.2,0-0.3-0.1c-0.1-0.1-0.1-0.2-0.1-0.3V27c0-0.5-0.4-0.8-0.9-0.8h0c-0.4,0-0.6,0.1-0.7,0.3c-0.1,0.1-0.3,0.4-0.3,0.5v2.3
	c0,0.2-0.2,0.4-0.4,0.4H6.9c1.5,2.6,4.4,4.4,6.8,5.4L15.4,26.4L15.4,26.4z"/>
<path class="st1" d="M29.8,23.1H19.5l0.5,2.5c0.2-0.1,0.5-0.2,0.7-0.2c0.5,0,0.9,0.1,1.2,0.5c0.3,0.3,0.5,0.7,0.5,1v1.9h1.4v-1.9
	c0.1-0.8,0.8-1.5,1.6-1.5c0.5,0,0.9,0.1,1.2,0.5c0.3,0.3,0.5,0.7,0.5,1v1.9h1.9c0.5-1.1,0.8-2.3,0.8-3.5
	C29.9,25.3,29.8,23.1,29.8,23.1z M8.5,28.9V27c0-0.4,0.2-0.7,0.5-1c0.3-0.3,0.8-0.5,1.2-0.5c0.8,0,1.5,0.6,1.6,1.5v1.9h1.4V27
	c0-0.4,0.2-0.7,0.5-1c0.3-0.3,0.8-0.5,1.2-0.5c0.3,0,0.5,0.1,0.7,0.2l0.5-2.5H5.8v2.2c0,1.3,0.3,2.5,0.8,3.5H8.5L8.5,28.9z
	 M9.3,21.7h0.6c0,0.1,0.1,0.1,0.1,0.2v0.1c0,0.1,0,0.2,0,0.4h-2c-0.3-0.2-0.4-1-0.4-1.6l0.9-0.2c0.1,0,0.3-0.2,0.3-0.3V20
	c0-0.1-0.1-0.2-0.1-0.3l-1-0.7v-0.6l0.3-0.2C7.9,18.1,8,18,8,17.9v-0.8c0-0.1-0.1-0.2-0.2-0.3l-0.3-0.1v-0.6h0.9l0.4,0.7v1l-0.3,0.9
	c0,0.1,0,0.2,0.1,0.3c0.1,0.1,0.2,0.1,0.3,0.1h0.3c0.2,0,0.3-0.1,0.4-0.3c0-0.1,0.1-0.6,0.2-0.8c0.1-0.1,0.3-0.5,0.5-0.7
	c0.1-0.1,0.1-0.3,0-0.4l-1.2-1.4c0-0.2-0.1-0.7,0-1c0.1-0.4,0.4-0.9,0.4-1c0-0.1,0.1-0.1,0-0.2l0-0.1h0.1l1.4,0.9
	c0.1,0,0.1,0.1,0.2,0.1h0.4l0,0.4L11,14.8c-0.1,0.1-0.2,0.2-0.2,0.3v0.4c0,0.2,0.1,0.4,0.4,0.4h1.2l0.3,0.3c0.1,0.1,0.3,0.1,0.5,0
	c0,0,0.5-0.4,0.6-0.5l0.2-0.4h0.7v1.2c0,0-1.3,0.4-1.4,0.5c-0.1,0-0.1,0.4-0.1,0.5c0,0.1,0,0.1,0.1,0.2c0,0,0.4,0.3,0.5,0.3l0.4-0.4
	l0.5,0.1V19l-0.5,0.3l-1.5-1c-0.2-0.1-0.4-0.1-0.5,0.1l-0.2,0.3c-0.1,0.1-0.1,0.4,0,0.5l0.8,0.8v0.6l-0.9,0.4
	c-0.1,0.1-0.2,0.2-0.2,0.3v0.1c0,0.2,0.1,0.4,0.4,0.4h1c0.2,0.2,0.1,0.5,0,0.7h-2.3c-0.1-0.1-0.1-0.2-0.1-0.4v-0.1
	c0-0.2,0-0.4,0.1-0.6l0.5-0.7c0-0.1,0.1-0.1,0.1-0.2l0-0.3c0-0.1-0.1-0.2-0.1-0.3c-0.1-0.1-0.2-0.1-0.3,0L10,20.2
	c-0.1,0-0.2,0.1-0.2,0.2l-0.1,0.4l-0.5,0.1C9.1,21,9,21.1,9,21.2v0.1C8.9,21.6,9.1,21.7,9.3,21.7z M26.3,21.7h-0.6
	c0,0.1-0.1,0.1-0.1,0.2v0.1c0,0.1,0,0.2,0,0.4h2c0.3-0.2,0.4-1,0.4-1.6l-0.9-0.2c-0.1,0-0.3-0.2-0.3-0.3V20c0-0.1,0.1-0.2,0.1-0.3
	l1-0.7v-0.6l-0.3-0.2c-0.1-0.1-0.2-0.2-0.2-0.3v-0.8c0-0.1,0.1-0.2,0.2-0.3l0.3-0.1v-0.6h-0.9l-0.4,0.7v1l0.3,0.9
	c0,0.1,0,0.2-0.1,0.3c-0.1,0.1-0.2,0.2-0.3,0.1h-0.3c-0.2,0-0.3-0.1-0.4-0.3c0-0.1-0.1-0.6-0.2-0.8c-0.1-0.1-0.3-0.5-0.5-0.7
	c-0.1-0.1-0.1-0.3,0-0.4l1.2-1.4c0-0.2,0.1-0.7,0-1c-0.1-0.4-0.4-0.9-0.4-1c0-0.1-0.1-0.1,0-0.2l0-0.1h-0.1l-1.4,0.9
	c-0.1,0-0.1,0.1-0.2,0.1h-0.4l0,0.5l0.5,0.2c0.1,0.1,0.2,0.2,0.2,0.3v0.4c0,0.2-0.2,0.4-0.4,0.4h-1.2L23,16.3
	c-0.1,0.1-0.3,0.1-0.5,0c0,0-0.5-0.4-0.6-0.5l-0.2-0.4H21v1.2c0,0,1.3,0.4,1.4,0.5c0.1,0,0.1,0.4,0.1,0.5c0,0.1,0,0.1-0.1,0.2
	c0,0-0.4,0.3-0.5,0.3l-0.4-0.4H21v1.2l0.5,0.3l1.5-1c0.2-0.1,0.4-0.1,0.5,0.1l0.2,0.3c0.1,0.1,0.1,0.4,0,0.5l-0.8,0.8v0.6l0.9,0.4
	c0.1,0.1,0.2,0.2,0.2,0.3v0.1c0,0.2-0.2,0.4-0.4,0.4h-1c-0.2,0.2-0.1,0.5,0,0.7h2.4c0.1-0.1,0.1-0.2,0.1-0.4v-0.1
	c0-0.2,0-0.4-0.1-0.6l-0.5-0.7c0-0.1-0.1-0.1-0.1-0.2l0-0.4c0-0.1,0.1-0.2,0.1-0.3c0.1-0.1,0.2-0.1,0.3,0l0.9,0.4
	c0.1,0,0.2,0.1,0.2,0.2l0.1,0.4l0.5,0.1c0.1,0,0.3,0.2,0.3,0.3v0.1C26.7,21.6,26.5,21.7,26.3,21.7z"/>
<path class="st0" d="M81.6,18.7c0-1.3,1-2.5,2.4-2.5c0.8,0,1.3,0.2,1.8,0.6l-0.4,0.4c-0.4-0.3-0.8-0.6-1.5-0.6c-1.1,0-1.9,0.9-1.9,2
	v0c0,1.1,0.7,2,1.9,2c0.6,0,1.1-0.2,1.4-0.5V19H84v-0.5h2v1.9c-0.4,0.4-1.1,0.7-2,0.7C82.6,21.1,81.6,20,81.6,18.7L81.6,18.7z
	 M92.3,18.7c0-1.1-0.8-2-1.9-2c-1.1,0-1.9,0.9-1.9,2v0c0,1.1,0.8,2,1.9,2C91.5,20.6,92.3,19.7,92.3,18.7z M87.9,18.7
	c0-1.3,1-2.5,2.5-2.5c1.5,0,2.5,1.1,2.5,2.5v0c0,1.3-1,2.5-2.5,2.5C88.9,21.1,87.9,20,87.9,18.7z M96.9,18.9h-1.5v1.7H97
	c0.7,0,1.2-0.3,1.2-0.9C98.2,19.2,97.8,18.9,96.9,18.9z M98,17.5c0-0.5-0.4-0.8-1.1-0.8h-1.5v1.6h1.5C97.5,18.4,98,18.1,98,17.5
	L98,17.5z M94.8,16.2h2.1c0.6,0,1,0.1,1.3,0.4c0.2,0.2,0.3,0.5,0.3,0.8v0c0,0.6-0.4,0.9-0.8,1.1c0.6,0.2,1.1,0.5,1.1,1.1v0
	c0,0.8-0.7,1.3-1.8,1.3h-2.2L94.8,16.2z M102.1,16.2h-0.5V21h0.5V16.2z M104.4,16.2h3.5v0.5h-3v1.6h2.7v0.5h-2.7v1.7h3V21h-3.6
	C104.4,21,104.4,16.2,104.4,16.2z M111.8,18.7c0.7,0,1.2-0.4,1.2-1v0c0-0.6-0.5-0.9-1.2-0.9h-1.5v2H111.8z M109.7,16.2h2.1
	c0.6,0,1.1,0.2,1.4,0.5c0.2,0.2,0.4,0.6,0.4,0.9v0c0,0.8-0.6,1.3-1.3,1.4l1.5,2h-0.7l-1.4-1.9h-1.3V21h-0.5
	C109.8,21,109.7,16.2,109.7,16.2z M115.6,16.2h0.5l3.1,3.9v-3.9h0.5V21h-0.4l-3.1-3.9V21h-0.5C115.6,21,115.6,16.2,115.6,16.2z
	 M126.1,18.7c0-1.1-0.8-2-1.9-2c-1.1,0-1.9,0.9-1.9,2v0c0,1.1,0.8,2,1.9,2C125.3,20.6,126.1,19.7,126.1,18.7z M121.7,18.7
	c0-1.3,1-2.5,2.5-2.5c1.5,0,2.5,1.1,2.5,2.5v0c0,1.3-1,2.5-2.5,2.5C122.7,21.1,121.7,20,121.7,18.7z M131.7,16.7v3.8h1.2
	c1.2,0,2-0.8,2-1.9v0c0-1-0.8-1.9-2-1.9H131.7z M131.2,16.2h1.7c1.5,0,2.6,1,2.6,2.4v0c0,1.3-1.1,2.4-2.6,2.4h-1.7V16.2z
	 M137.2,16.2h3.5v0.5h-3v1.6h2.7v0.5h-2.7v1.7h3V21h-3.6C137.2,21,137.2,16.2,137.2,16.2z M145.2,16.2h0.5v4.3h2.7V21h-3.3
	L145.2,16.2L145.2,16.2z M153.2,19.3l-1.1-2.4l-1.1,2.4H153.2z M151.8,16.2h0.5l2.2,4.8H154l-0.6-1.3h-2.7l-0.6,1.3h-0.6L151.8,16.2
	L151.8,16.2z M82.4,26.9c0-1.4,1.1-2.5,2.6-2.5c0.9,0,1.5,0.3,1.9,0.8l-0.7,0.8c-0.4-0.4-0.8-0.5-1.2-0.5c-0.8,0-1.4,0.7-1.4,1.5v0
	c0,0.8,0.6,1.5,1.4,1.5c0.6,0,0.9-0.2,1.3-0.6l0.7,0.7c-0.5,0.5-1.1,0.9-2,0.9C83.5,29.3,82.4,28.2,82.4,26.9z M88.8,24.5h-1.1v4.8
	h1.1V24.5z M90.1,27.2v-2.7h1.1v2.7c0,0.8,0.4,1.2,1.1,1.2s1.1-0.4,1.1-1.1v-2.7h1.1v2.7c0,1.5-0.8,2.1-2.2,2.1
	C90.9,29.3,90.1,28.6,90.1,27.2z M97.5,28.3c0.9,0,1.5-0.6,1.5-1.4s-0.6-1.4-1.5-1.4h-0.8v2.9C96.7,28.3,97.5,28.3,97.5,28.3z
	 M95.6,24.5h1.9c1.5,0,2.6,1,2.6,2.4v0c0,1.3-1.1,2.4-2.6,2.4h-1.9L95.6,24.5L95.6,24.5z M103.5,27.3l-0.7-1.5l-0.7,1.5L103.5,27.3
	L103.5,27.3z M102.5,24.4h1l2.1,4.8h-1.1l-0.4-1.1h-2.1l-0.4,1.1h-1.1L102.5,24.4L102.5,24.4z M108.2,28.3c0.9,0,1.5-0.6,1.5-1.4
	s-0.6-1.4-1.5-1.4h-0.8v2.9C107.4,28.3,108.2,28.3,108.2,28.3z M106.3,24.5h1.9c1.5,0,2.6,1,2.6,2.4v0c0,1.3-1.1,2.4-2.6,2.4h-1.9
	V24.5z M115.8,28.3c0.9,0,1.5-0.6,1.5-1.4s-0.6-1.4-1.5-1.4H115v2.9C115,28.3,115.8,28.3,115.8,28.3z M113.9,24.5h1.9
	c1.5,0,2.6,1,2.6,2.4v0c0,1.3-1.1,2.4-2.6,2.4h-1.9V24.5z M119.4,24.5h3.7v0.9h-2.6v1h2.3v0.9h-2.3v1h2.7v0.9h-3.7V24.5L119.4,24.5z
	 M126.2,24.5h1.2l1.3,2l1.3-2h1.2v4.8h-1.1v-3.1l-1.4,2h0l-1.3-2v3.1h-1.1C126.2,29.3,126.2,24.5,126.2,24.5z M134.4,22.9l0.9,0.4
	l-0.9,0.8h-0.8C133.6,24.1,134.4,22.9,134.4,22.9z M132.4,24.5h3.7v0.9h-2.6v1h2.3v0.9h-2.3v1h2.7v0.9h-3.7
	C132.4,29.2,132.4,24.5,132.4,24.5z M138.5,26.8l-1.6-2.4h1.2l1,1.5l1.1-1.5h1.2l-1.6,2.3l1.7,2.5h-1.2l-1.1-1.6l-1.1,1.6h-1.2
	L138.5,26.8L138.5,26.8z M143.3,24.5h-1.1v4.8h1.1V24.5z M144.4,26.9c0-1.4,1.1-2.5,2.6-2.5c0.9,0,1.5,0.3,1.9,0.8l-0.7,0.8
	c-0.4-0.4-0.8-0.5-1.2-0.5c-0.8,0-1.4,0.7-1.4,1.5v0c0,0.8,0.6,1.5,1.4,1.5c0.6,0,0.9-0.2,1.3-0.6l0.7,0.7c-0.5,0.5-1.1,0.9-2,0.9
	C145.5,29.3,144.4,28.2,144.4,26.9z M153.5,26.9c0-0.9-0.6-1.5-1.5-1.5s-1.5,0.7-1.5,1.5v0c0,0.8,0.6,1.5,1.5,1.5
	C152.9,28.4,153.5,27.7,153.5,26.9L153.5,26.9z M149.4,26.9c0-1.4,1.1-2.5,2.6-2.5c1.5,0,2.6,1.1,2.6,2.5v0c0,1.4-1.1,2.5-2.6,2.5
	C150.5,29.3,149.4,28.2,149.4,26.9z"/>
</svg>
